<svg width="42" height="48" viewBox="0 0 42 48" fill="none" xmlns="http://www.w3.org/2000/svg">
<path d="M3.89692 2.57785C2.57137 1.64996 0.749999 2.59827 0.749999 4.21631L0.749996 43.7837C0.749995 45.4017 2.57137 46.35 3.89692 45.4222L32.1593 25.6385C33.2968 24.8423 33.2968 23.1577 32.1593 22.3615L3.89692 2.57785Z" fill="#DEDEDE"/>
<path d="M41.25 45.625C41.25 46.7296 40.3546 47.625 39.25 47.625L36.5 47.625C35.3954 47.625 34.5 46.7296 34.5 45.625L34.5 2.375C34.5 1.27043 35.3954 0.375003 36.5 0.375003L39.25 0.375003C40.3546 0.375003 41.25 1.27043 41.25 2.375L41.25 45.625Z" fill="#DEDEDE"/>
</svg>
