<svg width="74" height="74" viewBox="0 0 74 74" fill="none" xmlns="http://www.w3.org/2000/svg">
<mask id="path-1-inside-1" fill="white">
<path d="M63.1576 10.8426C48.7015 -3.61359 25.3017 -3.61576 10.8435 10.8426C-3.61261 25.2987 -3.61478 48.6985 10.8435 63.1567C25.2997 77.6128 48.6995 77.615 63.1576 63.1567C77.6136 48.7007 77.6158 25.3009 63.1576 10.8426ZM37.0005 67.9144C19.954 67.9144 6.08563 54.046 6.08563 36.9996C6.08563 19.9531 19.954 6.0848 37.0005 6.0848C54.047 6.0848 67.9153 19.9532 67.9153 36.9997C67.9153 54.0462 54.047 67.9144 37.0005 67.9144Z"/>
</mask>
<path d="M63.1576 10.8426L79.4212 -5.42082L79.4211 -5.4209L63.1576 10.8426ZM10.8435 10.8426L27.107 27.106L27.1071 27.1059L10.8435 10.8426ZM10.8435 63.1567L27.107 46.8932L27.1069 46.8932L10.8435 63.1567ZM63.1576 63.1567L46.8942 46.8932L46.8941 46.8933L63.1576 63.1567ZM79.4211 -5.4209C55.9838 -28.8582 18.0211 -28.8622 -5.42002 -5.42082L27.1071 27.1059C32.5822 21.6307 41.4192 21.631 46.8942 27.106L79.4211 -5.4209ZM-5.41994 -5.4209C-28.8572 18.0164 -28.8612 55.9791 -5.41985 79.4202L27.1069 46.8932C21.6317 41.418 21.632 32.581 27.107 27.106L-5.41994 -5.4209ZM-5.41994 79.4201C18.0173 102.857 55.98 102.861 79.4212 79.4201L46.8941 46.8933C41.4189 52.3685 32.582 52.3682 27.107 46.8932L-5.41994 79.4201ZM79.4211 79.4201C102.858 55.9829 102.862 18.0204 79.4212 -5.42082L46.8941 27.1059C52.3695 32.5814 52.369 41.4185 46.8942 46.8932L79.4211 79.4201ZM37.0005 44.9144C32.6566 44.9144 29.0856 41.3435 29.0856 36.9996H-16.9144C-16.9144 66.7486 7.25149 90.9144 37.0005 90.9144V44.9144ZM29.0856 36.9996C29.0856 32.6558 32.6565 29.0848 37.0005 29.0848V-16.9152C7.25162 -16.9152 -16.9144 7.2504 -16.9144 36.9996H29.0856ZM37.0005 29.0848C41.3443 29.0848 44.9153 32.6556 44.9153 36.9997H90.9153C90.9153 7.25082 66.7497 -16.9152 37.0005 -16.9152V29.0848ZM44.9153 36.9997C44.9153 41.3436 41.3444 44.9144 37.0005 44.9144V90.9144C66.7495 90.9144 90.9153 66.7487 90.9153 36.9997H44.9153Z" fill="white" mask="url(#path-1-inside-1)"/>
<path d="M43.1732 23.1582C41.4951 23.1582 40.1348 24.5186 40.1348 26.1966V47.8032C40.1348 49.4813 41.4951 50.8416 43.1732 50.8416C44.8513 50.8416 46.2116 49.4813 46.2116 47.8032V26.1966C46.2116 24.5186 44.8514 23.1582 43.1732 23.1582Z" fill="white"/>
<path d="M30.8266 23.1582C29.1486 23.1582 27.7882 24.5186 27.7882 26.1966V47.8032C27.7882 49.4813 29.1486 50.8416 30.8266 50.8416C32.5047 50.8416 33.8651 49.4813 33.8651 47.8032V26.1966C33.8651 24.5186 32.5049 23.1582 30.8266 23.1582Z" fill="white"/>
</svg>
