<svg width="54" height="50" viewBox="0 0 54 50" fill="none" xmlns="http://www.w3.org/2000/svg">
<path d="M36.0246 7.00035C36.0164 7.00024 36.0085 6.99908 36.0004 6.99908H23.4318L26.341 4.08992C27.2197 3.21123 27.2197 1.7865 26.341 0.907801C25.4623 0.0291052 24.0375 0.0291052 23.1588 0.907801L16.4086 7.65808C16.3561 7.7105 16.3066 7.76566 16.2595 7.82293C16.2382 7.84888 16.2197 7.8763 16.1996 7.90299C16.1756 7.93505 16.1508 7.96638 16.1285 7.99971C16.1071 8.03166 16.0886 8.06489 16.0691 8.09769C16.051 8.12786 16.032 8.15739 16.0154 8.1885C15.9975 8.22194 15.9824 8.25632 15.9663 8.29039C15.951 8.32288 15.9348 8.35483 15.921 8.38806C15.9073 8.42118 15.8962 8.45503 15.8842 8.48857C15.8713 8.52422 15.8577 8.55945 15.8466 8.59594C15.8365 8.62949 15.829 8.66366 15.8205 8.69762C15.8111 8.73485 15.8006 8.77156 15.7931 8.80953C15.7853 8.84876 15.7807 8.88842 15.7751 8.92787C15.7704 8.96099 15.7641 8.99347 15.7608 9.02701C15.7536 9.10011 15.7497 9.17341 15.7497 9.24682C15.7497 9.24756 15.7496 9.2483 15.7496 9.24903C15.7496 9.24988 15.7497 9.25062 15.7497 9.25146C15.7498 9.32476 15.7536 9.39807 15.7608 9.47106C15.764 9.5046 15.7704 9.53719 15.7751 9.5703C15.7808 9.60986 15.7853 9.64941 15.7931 9.68865C15.8006 9.72662 15.8111 9.76332 15.8205 9.80055C15.829 9.83452 15.8364 9.86858 15.8466 9.90212C15.8577 9.93862 15.8714 9.97384 15.8842 10.0096C15.8962 10.0431 15.9073 10.0769 15.9209 10.1099C15.9347 10.1432 15.9509 10.1752 15.9662 10.2077C15.9822 10.2417 15.9974 10.2761 16.0153 10.3095C16.0319 10.3406 16.0509 10.3702 16.0691 10.4004C16.0886 10.4331 16.1071 10.4663 16.1285 10.4983C16.1509 10.5317 16.1758 10.5631 16.1998 10.5952C16.2198 10.6218 16.2382 10.6492 16.2595 10.675C16.3066 10.7324 16.3561 10.7876 16.4086 10.84L23.1588 17.5903C24.0375 18.469 25.4623 18.469 26.341 17.5903C27.2197 16.7116 27.2197 15.2868 26.341 14.4081L23.4318 11.499H35.9814C35.9874 11.499 35.9932 11.4999 35.9992 11.4999C43.4644 11.4999 49.4998 17.5353 49.4998 25.0005C49.4998 28.2773 48.1911 31.3604 45.901 33.6525C45.0226 34.5317 45.0232 35.9563 45.9023 36.8347C46.7814 37.7131 48.2061 37.7124 49.0844 36.8333C52.2077 33.7074 54 29.485 54 25.0005C54 15.0587 45.9634 7.01406 36.0246 7.00035Z" fill="#DEDEDE"/>
<path d="M37.8005 42.0963C37.8244 42.0644 37.8492 42.0331 37.8715 41.9998C37.8929 41.9678 37.9115 41.9345 37.9311 41.9016C37.9491 41.8715 37.968 41.842 37.9845 41.811C38.0025 41.7775 38.0177 41.743 38.0338 41.7087C38.0491 41.6764 38.0652 41.6446 38.0789 41.6115C38.0927 41.5783 38.1038 41.5443 38.1159 41.5105C38.1286 41.475 38.1422 41.44 38.1532 41.4037C38.1634 41.3699 38.1709 41.3356 38.1795 41.3015C38.1888 41.2645 38.1992 41.2279 38.2067 41.1902C38.2145 41.1507 38.2191 41.1108 38.2249 41.071C38.2296 41.0382 38.2359 41.006 38.2392 40.9727C38.2537 40.8251 38.2537 40.6762 38.2392 40.5286C38.2359 40.4953 38.2297 40.463 38.2249 40.4302C38.2192 40.3904 38.2146 40.3505 38.2068 40.311C38.1993 40.2732 38.189 40.2366 38.1796 40.1996C38.171 40.1655 38.1635 40.1313 38.1533 40.0975C38.1423 40.0611 38.1286 40.0261 38.1159 39.9906C38.1037 39.9568 38.0927 39.9229 38.0789 39.8896C38.0652 39.8565 38.0491 39.8248 38.0338 39.7925C38.0177 39.7582 38.0025 39.7236 37.9844 39.6901C37.9679 39.6592 37.949 39.6297 37.9311 39.5997C37.9115 39.5668 37.8928 39.5334 37.8714 39.5014C37.8491 39.4682 37.8244 39.4369 37.8006 39.4051C37.7805 39.3782 37.7618 39.3507 37.7404 39.3245C37.6941 39.2681 37.6451 39.2138 37.5936 39.1621C37.5928 39.1612 37.5921 39.1604 37.5913 39.1596L30.8411 32.4094C29.9624 31.5307 28.5376 31.5307 27.6589 32.4094C26.7802 33.2881 26.7802 34.7128 27.6589 35.5915L30.5681 38.5007H18.0186C18.0126 38.5007 18.0068 38.4997 18.0008 38.4997C10.5356 38.4997 4.50022 32.4643 4.50022 24.9992C4.50022 21.7223 5.80893 18.6392 8.09907 16.3471C8.97745 15.468 8.97681 14.0433 8.0977 13.165C7.21858 12.2866 5.79395 12.2872 4.91557 13.1663C1.7923 16.292 0 20.5144 0 24.9989C0 34.941 8.03663 42.9857 17.9755 42.9994C17.9836 42.9995 17.9915 43.0007 17.9996 43.0007H30.5681L27.6589 45.9098C26.7802 46.7885 26.7802 48.2132 27.6589 49.0919C28.5376 49.9706 29.9624 49.9706 30.8411 49.0919L37.5913 42.3417C37.5918 42.3412 37.5921 42.3408 37.5925 42.3404C37.6444 42.2884 37.6937 42.2337 37.7404 42.1768C37.7619 42.1506 37.7805 42.1231 37.8005 42.0963Z" fill="#DEDEDE"/>
</svg>
