<svg width="54" height="52" viewBox="0 0 54 52" fill="none" xmlns="http://www.w3.org/2000/svg">
<path d="M54 39.8871L42.7576 28.6393V37.5719H41.6571C36.5138 37.5719 33.1982 34.5394 30.1928 30.3024C29.3643 31.6551 28.4906 33.0614 27.5442 34.4565C30.9539 38.7862 35.252 42.2005 41.657 42.2005H42.7575V51.1322L54 39.8871Z" fill="#DEDEDE"/>
<path d="M54 12.1156L42.7577 0.86792V9.8006H41.6571C31.8735 9.8006 27.0057 17.766 22.711 24.7938C18.5207 31.6502 14.9021 37.5719 7.7143 37.5719H0V42.2005H7.7143C17.4979 42.2005 22.3657 34.2351 26.6604 27.2073C30.8507 20.3506 34.4693 14.429 41.6571 14.429H42.7577V23.3607L54 12.1156Z" fill="#DEDEDE"/>
<path d="M7.7143 9.80029H0V14.4289H7.7143C12.8576 14.4289 16.1732 17.4613 19.1785 21.6983C20.0071 20.3457 20.8808 18.9394 21.8272 17.5442C18.4174 13.2143 14.1193 9.80029 7.7143 9.80029Z" fill="#DEDEDE"/>
</svg>
